<?xml version="1.0" encoding="utf-8"?>
<!-- Generator: Adobe Illustrator 23.0.3, SVG Export Plug-In . SVG Version: 6.00 Build 0)  -->
<svg version="1.1" id="Layer_1" xmlns="http://www.w3.org/2000/svg" xmlns:xlink="http://www.w3.org/1999/xlink" x="0px"
     y="0px"
     viewBox="0 0 512 512" style="enable-background:new 0 0 512 512;" xml:space="preserve">
<style type="text/css">
	.st0 {
        fill: #FFFFFF;
    }
</style>
    <g id="management">
	<path class="st0" d="M392,128h16c0-44.2-35.8-80-80-80v16C363.3,64,392,92.7,392,128z"/>
        <path class="st0" d="M160,104c-30.9,0-56,25.1-56,56h16c0-22.1,17.9-40,40-40V104z"/>
        <path class="st0" d="M448,248h16c0-17.7-14.3-32-32-32v16C440.8,232,448,239.2,448,248z"/>
        <path class="st0" d="M464,352c-14.5,0.1-27.2,9.9-30.9,24H416v-48h-16v56c0,4.4,3.6,8,8,8h25.1c4.4,17.1,21.9,27.3,39,22.9
		c17.1-4.4,27.3-21.9,22.9-39C491.3,361.8,478.6,352,464,352z M464,400c-8.8,0-16-7.2-16-16s7.2-16,16-16s16,7.2,16,16
		S472.8,400,464,400z"/>
        <path class="st0" d="M78.9,392H104c4.4,0,8-3.6,8-8v-56H96v48H78.9c-4.4-17.1-21.9-27.4-39-23s-27.4,21.9-23,39s21.9,27.4,39,23
		C67.2,412.1,76,403.3,78.9,392z M48,400c-8.8,0-16-7.2-16-16s7.2-16,16-16s16,7.2,16,16S56.8,400,48,400z"/>
        <path class="st0" d="M335.6,328h0.4c10.1,0,19.1-6.4,22.5-16H432c35.3,0,64-28.7,64-64s-28.7-64-64-64h-7.1
		c9.9-17,15.1-36.3,15.1-56c0-61.8-50.1-112-111.9-112c-49.7,0-93.4,32.7-107.4,80.3c-35.1-33.5-90.8-32.3-124.3,2.9
		C80.7,115.6,72,137.4,72,160c0,8.2,1.1,16.3,3.4,24.2c-35.3,2.6-61.8,33.2-59.2,68.5C18.6,286.1,46.5,312,80,312h73.5
		c3.4,9.6,12.4,16,22.5,16h0.4c4.4,44,43.6,76,87.6,71.6C301.9,395.8,331.8,365.9,335.6,328L335.6,328z M176,256v4.7l-8-8V240
		c0-30.9,25.1-56,56-56h64c30.9,0,56,25.1,56,56v12.7l-8,8V256c0-3.6-2.4-6.8-5.9-7.7l-88-24c-1.7-0.5-3.6-0.3-5.3,0.4l-56,24
		C177.9,249.9,176,252.8,176,256z M344,304c0,4.4-3.6,8-8,8v-24c4.4,0,8,3.6,8,8V304z M32,248c0-26.5,21.5-48,48-48h6.7
		c4.4,0,8-3.6,8-8c0-1.1-0.2-2.2-0.7-3.2c-4-9.1-6.1-18.9-6-28.8c0-39.8,32.3-72,72.1-71.9c23.2,0,45,11.3,58.5,30.2
		c2.6,3.6,7.6,4.4,11.2,1.8c1.8-1.3,2.9-3.2,3.2-5.3c7.2-52.5,55.5-89.3,108-82.1c47.7,6.5,83.1,47.3,83,95.4
		c0,21.4-7.2,42.3-20.5,59.1c-2.7,3.5-2.1,8.5,1.4,11.2c1.4,1.1,3.1,1.7,4.9,1.7H432c26.5,0,48,21.5,48,48s-21.5,48-48,48h-72
		c0-9.6-5.8-18.3-14.6-22.1l12.3-12.3c1.5-1.5,2.3-3.5,2.3-5.7v-16c0-39.7-32.3-72-72-72h-64c-39.7,0-72,32.3-72,72v16
		c0,2.1,0.8,4.2,2.3,5.7l12.3,12.3c-8.9,3.8-14.6,12.5-14.6,22.1H80C53.5,296,32,274.5,32,248z M168,304v-8c0-4.4,3.6-8,8-8v24
		C171.6,312,168,308.4,168,304z M256,384c-35.3,0-64-28.7-64-64v-58.7l48.6-20.8l79.4,21.6V320C320,355.3,291.3,384,256,384z"/>
        <path class="st0" d="M360,400H152c-48.6,0.1-87.9,39.4-88,88c0,4.4,3.6,8,8,8h368c4.4,0,8-3.6,8-8C447.9,439.4,408.6,400.1,360,400
		z M292.8,416L282,448h-52l-10.8-32H292.8z M80.4,480c4.1-36.4,34.9-64,71.6-64h50.3l14.4,42.6c1.1,3.2,4.2,5.4,7.6,5.4h63.4
		c3.4,0,6.5-2.2,7.6-5.4l14.5-42.6H360c36.7,0,67.4,27.6,71.6,64H80.4z"/>
</g>
</svg>
