<?xml version="1.0" encoding="utf-8"?>
<!-- Generator: Adobe Illustrator 23.0.3, SVG Export Plug-In . SVG Version: 6.00 Build 0)  -->
<svg version="1.1" id="Layer_1" xmlns="http://www.w3.org/2000/svg" xmlns:xlink="http://www.w3.org/1999/xlink" x="0px"
     y="0px"
     viewBox="0 0 374 491" style="enable-background:new 0 0 374 491;" xml:space="preserve">
<style type="text/css">
	.st0 {
        fill: #FFFFFF;
    }
</style>
    <g id="outline">
	<path class="st0" d="M2,485h368V5H2V485z M354,469h-76.7l16-16H338v-44.7l16-16V469z M309.3,437l12.7-12.7V437H309.3z M354,369.7
		L254.7,469h-25.4L354,344.3V369.7z M50,437V53h272v300.7L238.7,437H50z M18,21h336v300.7l-16,16V37H34v416h188.7l-16,16H18L18,21z"
    />
        <path class="st0" d="M234,181v-32c0-26.5-21.5-48-48-48s-48,21.5-48,48v32c0,26.5,21.5,48,48,48S234,207.5,234,181z M218,181
		c0,17.7-14.3,32-32,32s-32-14.3-32-32v-0.3c11.8-0.9,33.3-4,46.3-15.5c4.7,5.9,10.8,10.4,17.7,13.2V181z M218,160.3
		c-4.2-2.4-7.1-6.5-8-11.3c0-4.4-3.6-8-8-8c-3.4,0-6.5,2.2-7.6,5.5c-4.1,12.3-26.4,16.8-40.4,18.1V149c0-17.7,14.3-32,32-32
		c17.7,0,32,14.3,32,32V160.3z"/>
        <path class="st0" d="M66,325h240V69H66V325z M146,309h-16v-51.5c0-3.7,2.5-6.9,6.1-7.8l9.9-2.5V309z M210,309h-48v-64h48V309z
		 M242,309h-16v-61.8l9.9,2.5c3.6,0.9,6.1,4.1,6.1,7.8V309z M82,85h208v224h-32v-51.5c0-11-7.5-20.6-18.2-23.3l-19.9-5
		c-0.6-0.1-1.3-0.2-1.9-0.2h-64c-0.7,0-1.3,0.1-1.9,0.2l-19.9,5c-10.7,2.7-18.2,12.3-18.2,23.3V309H82V85z"/>
        <path class="st0" d="M178,261h16v16h-16V261z"/>
        <path class="st0" d="M122,349h128v16H122V349z"/>
        <path class="st0" d="M106,381h72v16h-72V381z"/>
        <path class="st0" d="M194,381h72v16h-72V381z"/>
</g>
</svg>
