<?xml version="1.0" encoding="utf-8"?>
<!-- Generator: Adobe Illustrator 25.2.0, SVG Export Plug-In . SVG Version: 6.00 Build 0)  -->
<svg version="1.1" id="Outline" xmlns="http://www.w3.org/2000/svg" xmlns:xlink="http://www.w3.org/1999/xlink" x="0px"
     y="0px"
     viewBox="0 0 512 512" style="enable-background:new 0 0 512 512;" xml:space="preserve">
<style type="text/css">
	.st0 {
        fill: #FFFFFF;
    }
</style>
    <path class="st0" d="M56,40v432c0,13.2,10.8,24,24,24h320c22.1,0,40-17.9,40-40V294.6c9.6-3.4,16-12.5,16-22.6v-32
	c0-10.2-6.4-19.2-16-22.6V56c0-22.1-17.9-40-40-40H80C66.8,16,56,26.8,56,40z M440,272c0,4.4-3.6,8-8,8h-72v-48h72c4.4,0,8,3.6,8,8
	V272z M328,32h48v136l-19.2-14.4c-2.8-2.1-6.8-2.1-9.6,0L328,168L328,32z M104,32h208v152c0,4.4,3.6,8,8,8c1.7,0,3.4-0.6,4.8-1.6
	L352,170l27.2,20.4c3.5,2.7,8.5,1.9,11.2-1.6c1-1.4,1.6-3.1,1.6-4.8V32h8c13.2,0,24,10.8,24,24v160H320c-4.4,0-8,3.6-8,8v64
	c0,4.4,3.6,8,8,8h104v160c0,13.2-10.8,24-24,24H104V32z M328,280v-48h16v48H328z M72,40c0-4.4,3.6-8,8-8h8v448h-8c-4.4,0-8-3.6-8-8
	V40z"/>
    <circle class="st0" cx="416" cy="256" r="8"/>
    <path class="st0" d="M272,64H144c-4.4,0-8,3.6-8,8s3.6,8,8,8h128c4.4,0,8-3.6,8-8S276.4,64,272,64z"/>
    <path class="st0" d="M272,96H144c-4.4,0-8,3.6-8,8s3.6,8,8,8h128c4.4,0,8-3.6,8-8S276.4,96,272,96z"/>
    <path class="st0" d="M272,128H144c-4.4,0-8,3.6-8,8s3.6,8,8,8h128c4.4,0,8-3.6,8-8S276.4,128,272,128z"/>
</svg>
