<?xml version="1.0" encoding="utf-8"?>
<!-- Generator: Adobe Illustrator 23.0.3, SVG Export Plug-In . SVG Version: 6.00 Build 0)  -->
<svg version="1.1" id="Layer_1" xmlns="http://www.w3.org/2000/svg" xmlns:xlink="http://www.w3.org/1999/xlink" x="0px"
     y="0px"
     viewBox="0 0 512 512" style="enable-background:new 0 0 512 512;" xml:space="preserve">
<style type="text/css">
	.st0 {
        fill: #FFFFFF;
    }
</style>
    <g>
	<g>
		<g>
			<path class="st0" d="M501.3,277.3c5.9,0,10.7-4.8,10.7-10.7v-53.3c0-23.5-19.1-42.7-42.7-42.7H389c-3.1-6.8-5-13.9-5-21.3
				c0-19.3,10.7-37.2,28-46.6c2.5-1.4,4.4-3.7,5.1-6.5c0.8-2.8,0.4-5.7-1-8.2l-26-45.4c-5.7-9.9-14.8-17-25.8-19.9
				c-10.9-2.9-22.3-1.4-32.1,4.3L21.1,208.2C1,219.9-6,246,5.6,266.3l26.9,47c1.4,2.5,3.8,4.3,6.6,5c2.8,0.7,5.7,0.3,8.2-1.2
				c8.6-5.2,17.8-7.8,27.4-7.8c23.3,0,43.6,15.3,50.5,37.5c-6.9,21.5-26.8,37.1-50.5,37.1c-5.9,0-10.7,4.8-10.7,10.7V448
				c0,23.5,19.1,42.7,42.7,42.7h362.7c23.5,0,42.7-19.1,42.7-42.7v-53.3c0-5.9-4.8-10.7-10.7-10.7c-29.4,0-53.3-23.9-53.3-53.3
				C448,301.3,471.9,277.3,501.3,277.3z M342.9,45.5c4.8-2.8,10.5-3.6,15.8-2.1c5.4,1.5,10,5,12.8,9.9l21,36.6
				c-18.7,14-29.9,35.9-29.9,59.4c0,7.2,1.2,14.4,3.3,21.3H128L342.9,45.5z M74.7,288c-9.8,0-19.5,2-28.7,5.9l-21.8-38.2
				c-5.8-10.2-2.4-23.3,7.7-29.1l32.7-19c-0.3,1.9-0.6,3.8-0.6,5.8v53.3c0,5.9,4.8,10.7,10.7,10.7c19.6,0,36.6,10.8,45.9,26.6
				C107.8,293.9,91.8,288,74.7,288z M426.6,330.7c0,37.6,27.9,68.7,64,73.9V448c0,11.8-9.6,21.3-21.3,21.3h-256v-18.7
				c0-5.9-4.8-10.7-10.7-10.7s-10.7,4.8-10.7,10.7v18.7h-85.3c-11.8,0-21.3-9.6-21.3-21.3v-43.4c36.1-5.2,64-36.4,64-73.9
				s-27.9-68.7-64-73.9v-43.4c0-11.8,9.6-21.3,21.3-21.3H192v24c0,5.9,4.8,10.7,10.7,10.7s10.7-4.8,10.7-10.7v-24h256
				c11.8,0,21.3,9.6,21.3,21.3v43.4C454.5,261.9,426.6,293.1,426.6,330.7z"/>
            <path class="st0" d="M202.6,269.3c-5.9,0-10.7,4.8-10.7,10.7v21.3c0,5.9,4.8,10.7,10.7,10.7s10.7-4.8,10.7-10.7V280
				C213.3,274.1,208.5,269.3,202.6,269.3z"/>
            <path class="st0" d="M202.6,354.7c-5.9,0-10.7,4.8-10.7,10.7v21.3c0,5.9,4.8,10.7,10.7,10.7s10.7-4.8,10.7-10.7v-21.3
				C213.3,359.4,208.5,354.7,202.6,354.7z"/>
            <path class="st0" d="M401,236.8c-4.7-3.5-11.4-2.6-14.9,2.1l-128,170.7c-3.5,4.7-2.6,11.4,2.1,14.9c1.9,1.4,4.2,2.1,6.4,2.1
				c3.3,0,6.4-1.5,8.5-4.3l128-170.7C406.7,247,405.8,240.3,401,236.8z"/>
            <path class="st0" d="M288,320c17.9,0,32-18.7,32-42.7s-14.1-42.7-32-42.7s-32,18.7-32,42.7C256,301.3,270,320,288,320z M288,256
				c4.4,0,10.7,8.3,10.7,21.3c0,13-6.3,21.3-10.7,21.3s-10.7-8.3-10.7-21.3C277.3,264.3,283.6,256,288,256z"/>
            <path class="st0" d="M373.3,341.3c-17.9,0-32,18.7-32,42.7s14.1,42.7,32,42.7s32-18.7,32-42.7S391.3,341.3,373.3,341.3z
				 M373.3,405.3c-4.4,0-10.7-8.3-10.7-21.3s6.3-21.3,10.7-21.3S384,371,384,384S377.7,405.3,373.3,405.3z"/>
		</g>
	</g>
</g>
</svg>
