<?xml version="1.0" encoding="utf-8"?>
<!-- Generator: Adobe Illustrator 23.0.3, SVG Export Plug-In . SVG Version: 6.00 Build 0)  -->
<svg version="1.1" id="Layer_3" xmlns="http://www.w3.org/2000/svg" xmlns:xlink="http://www.w3.org/1999/xlink" x="0px" y="0px"
	 viewBox="0 0 512 512" style="enable-background:new 0 0 512 512;" xml:space="preserve">
<style type="text/css">
	.st0{fill:#FFFFFF;}
</style>
<g>
	<path class="st0" d="M464,160c-19.3,0-35.5,13.8-39.2,32H348l12-16c10.3-13.8,16-30.8,16-48c0-44.1-35.9-80-80-80s-80,35.9-80,80
		c0,17.2,5.7,34.2,16,48l12,16H87.2c-3.7-18.2-19.9-32-39.2-32c-22.1,0-40,17.9-40,40v224c0,22.1,17.9,40,40,40h416
		c22.1,0,40-17.9,40-40V200C504,177.9,486.1,160,464,160z M424,384h-32v-32h32V384z M424,336h-32c-8.8,0-16,7.2-16,16v32
		c0,8.8,7.2,16,16,16h32v16h-32c-8.8,0-16,7.2-16,16v16h-16v-88c0-13.2-10.8-24-24-24h-72c-13.2,0-24,10.8-24,24v88h-16V344
		c0-4.4-3.6-8-8-8h-56c-4.4,0-8,3.6-8,8v6.3c0,34.8-9.9,68.4-28.5,97.7h-20.1c21.3-30.7,32.6-66.6,32.6-104c0-4.4-3.6-8-8-8H88v-16
		h24c13.2,0,24-10.8,24-24v-22.7c0-6.9,4.4-13,10.9-15.2l39.2-13.1c13.1-4.4,21.9-16.6,21.9-30.4V208h16v13.4
		c0,17.2-11,32.5-27.4,37.9l-33.7,11.2c-6.5,2.2-10.9,8.3-10.9,15.2V296c0,13.2,10.8,24,24,24h160c13.2,0,24-10.8,24-24v-88h16v88
		c0,13.2,10.8,24,24,24h24V336z M344,448h-88v-88c0-4.4,3.6-8,8-8h72c4.4,0,8,3.6,8,8V448z M208,448h-65.7
		c16.6-29.3,25.4-62.1,25.7-96h40V448z M88,304v-96h104v6.7c0,6.9-4.4,13-10.9,15.2l-39.2,13.1c-13.1,4.4-21.9,16.6-21.9,30.4V296
		c0,4.4-3.6,8-8,8H88z M424,304h-24c-4.4,0-8-3.6-8-8v-88h32V304z M296,64c35.3,0,64,28.7,64,64c0,13.8-4.5,27.4-12.8,38.4
		L296,234.7l-51.2-68.3c-8.3-11-12.8-24.7-12.8-38.4C232,92.7,260.7,64,296,64z M320,248c0,8.7-11,16-24,16s-24-7.3-24-16
		c0-3.8,2.3-7.6,6.2-10.5l11.4,15.3c1.5,2,3.9,3.2,6.4,3.2s4.9-1.2,6.4-3.2l11.4-15.3C317.7,240.4,320,244.2,320,248L320,248z
		 M268.5,224.7C260.6,230.6,256,239,256,248c0,17.6,17.9,32,40,32s40-14.4,40-32c0-9-4.6-17.4-12.5-23.3L336,208h8v88
		c0,4.4-3.6,8-8,8H176c-4.4,0-8-3.6-8-8v-10.2l33.7-11.2c22.9-7.6,38.3-29,38.3-53.1V208h16L268.5,224.7z M24,200
		c0-13.2,10.8-24,24-24s24,10.8,24,24v192c-6.7-5-15-8-24-8s-17.3,3-24,8V200z M24,424c0-13.2,10.8-24,24-24s24,10.8,24,24
		c0,4.4,3.6,8,8,8s8-3.6,8-8v-72h31.8c-1.5,32.1-12.1,62.6-30.9,88.9l-5.1,7.1H48C34.8,448,24,437.2,24,424L24,424z M464,448h-72
		v-16h40c4.4,0,8-3.6,8-8c0-13.2,10.8-24,24-24s24,10.8,24,24S477.2,448,464,448z M488,392c-6.7-5-15-8-24-8s-17.3,3-24,8V200
		c0-13.2,10.8-24,24-24s24,10.8,24,24V392z"/>
	<path class="st0" d="M296,160c22.1,0,40-17.9,40-40s-17.9-40-40-40s-40,17.9-40,40S273.9,160,296,160z M296,96
		c13.2,0,24,10.8,24,24s-10.8,24-24,24s-24-10.8-24-24S282.8,96,296,96z"/>
</g>
</svg>
