<?xml version="1.0" encoding="utf-8"?>
<!-- Generator: Adobe Illustrator 23.0.3, SVG Export Plug-In . SVG Version: 6.00 Build 0)  -->
<svg version="1.1" id="Capa_1" xmlns="http://www.w3.org/2000/svg" xmlns:xlink="http://www.w3.org/1999/xlink" x="0px" y="0px"
	 viewBox="0 0 512 512" style="enable-background:new 0 0 512 512;" xml:space="preserve">
<style type="text/css">
	.st0{fill:#FFFFFF;}
</style>
<g>
	<path class="st0" d="M82.2,398.2c-4.2,0-7.5-3.4-7.5-7.5s3.4-7.5,7.5-7.5s7.5,3.4,7.5,7.5S86.3,398.2,82.2,398.2z"/>
	<g>
		<path class="st0" d="M487,269.9c-7.2-12.5-24.4-17.7-37.6-10.1l-96.1,55.5c-3.1-11.7-13.9-20.4-26.6-20.4h-45.9
			c-18.5-7.9-38.6-15.5-59-15.5c-39.5,0-73,27.6-92.8,59.9l-14.8-14.8c-2.9-2.9-7.7-2.9-10.6,0l-16,16l-8.2-8.2
			c-3.5-2.9-7.1-2.9-10.6,0l-44.9,44.9c-2.9,2.9-2.9,7.7,0,10.6l122,122c3.5,2.9,7.1,2.9,10.6,0l66.3-66.3c2.9-3.5,2.9-7.1,0-10.6
			L208,418.2h35.6c4.2,0,7.5-3.4,7.5-7.5s-3.4-7.5-7.5-7.5H193l-52.9-52.9c8.1-14.1,35.9-55.8,81.8-55.8c20.5,0,38.6,15.5,57.6,15.5
			h47.3c15.5,0,16.8,25,0,25h-90.8c-4.2,0-7.5,3.4-7.5,7.5s3.4,7.5,7.5,7.5h90.8c11.1,0,20.9-6.5,25.2-16.5l105-60.6
			c7-3.2,12.7-1.7,17.1,4.6c3.8,6.6-0.4,13.7-5.4,17.6l-126.7,99.1c-7.4,5.8-16.7,9-26.1,9h-39.4c-4.2,0-7.5,3.4-7.5,7.5
			s3.4,7.5,7.5,7.5h39.4c12.8,0,25.3-4.3,35.3-12.2l126.4-98.8C490.4,297.4,493.6,284.9,487,269.9L487,269.9z M151.1,493.8
			L39.8,382.5l34.3-34.3l111.3,111.3L151.1,493.8z M196,448.9l-97.8-97.8l10.7-10.7l97.8,97.8L196,448.9z"/>
		<path class="st0" d="M53.7,233h69.2c4.2,0,7.5-3.4,7.5-7.5c0-4.2-3.4-7.5-7.5-7.5H61.2V15H451v85c0,4.2,3.4,7.5,7.5,7.5
			s7.5-3.4,7.5-7.5V7.5c0-4.2-3.4-7.5-7.5-7.5H53.7c-4.2,0-7.5,3.4-7.5,7.5v218C46.1,229.7,49.5,233,53.7,233z"/>
		<path class="st0" d="M155.7,233h302.8c4.2,0,7.5-3.4,7.5-7.5v-92.7c0-4.2-3.4-7.5-7.5-7.5s-7.5,3.4-7.5,7.5V218H155.7
			c-4.2,0-7.5,3.4-7.5,7.5C148.2,229.7,151.5,233,155.7,233L155.7,233z"/>
		<path class="st0" d="M396.2,201.9c2,0,3.9-0.8,5.3-2.2l31.1-31.1c1.4-1.4,2.2-3.3,2.2-5.3V69.8c0-2-0.8-3.9-2.2-5.3l-31.1-31.2
			c-1.4-1.4-3.3-2.2-5.3-2.2H115.9c-2,0-3.9,0.8-5.3,2.2L79.5,64.5c-1.4,1.4-2.2,3.3-2.2,5.3v93.4c0,2,0.8,3.9,2.2,5.3l31.1,31.1
			c1.4,1.4,3.3,2.2,5.3,2.2L396.2,201.9L396.2,201.9z M201.3,116.5c0-38.8,24.6-70.4,54.8-70.4s54.8,31.6,54.8,70.4
			s-24.6,70.4-54.8,70.4S201.3,155.3,201.3,116.5L201.3,116.5z M393.1,46.1l26.7,26.8v87.2l-26.7,26.7h-97.5
			c18.3-15.4,30.3-41.2,30.3-70.4s-12-55-30.3-70.4H393.1z M119.1,186.9l-26.7-26.7V72.9l26.7-26.8h97.5
			c-18.3,15.4-30.3,41.2-30.3,70.4s12,55,30.3,70.4H119.1z"/>
		<path class="st0" d="M139.3,93.4c-12.7,0-23.1,10.4-23.1,23.1s10.4,23.1,23.1,23.1s23.1-10.4,23.1-23.1S152,93.4,139.3,93.4z
			 M139.3,124.6c-4.4,0-8.1-3.6-8.1-8.1c0-4.4,3.6-8.1,8.1-8.1s8.1,3.6,8.1,8.1C147.3,121,143.7,124.6,139.3,124.6z"/>
		<path class="st0" d="M372.9,139.6c12.7,0,23.1-10.4,23.1-23.1s-10.4-23.1-23.1-23.1s-23.1,10.4-23.1,23.1S360.1,139.6,372.9,139.6
			z M372.9,108.5c4.4,0,8.1,3.6,8.1,8.1c0,4.4-3.6,8.1-8.1,8.1c-4.4,0-8.1-3.6-8.1-8.1C364.8,112.1,368.4,108.5,372.9,108.5z"/>
		<path class="st0" d="M223.9,108.1h64.4c3,0,5.8-1.8,6.9-4.6c1.2-2.8,0.5-6-1.6-8.2L278,79.7c-2.9-2.9-7.7-2.9-10.6,0
			c-2.9,2.9-2.9,7.7,0,10.6l2.7,2.7h-46.3c-4.2,0-7.5,3.4-7.5,7.5S219.7,108.1,223.9,108.1L223.9,108.1z"/>
		<path class="st0" d="M295.8,131.7c0-4.2-3.4-7.5-7.5-7.5h-64.4c-3,0-5.8,1.8-6.9,4.6c-1.2,2.8-0.5,6,1.6,8.2l15.6,15.6
			c3.5,2.9,7.1,2.9,10.6,0c2.9-2.9,2.9-7.7,0-10.6l-2.7-2.7h46.3C292.4,139.3,295.8,135.9,295.8,131.7L295.8,131.7z"/>
	</g>
</g>
</svg>
