<svg id="Layer_1" data-name="Layer 1" xmlns="http://www.w3.org/2000/svg" viewBox="0 0 1920 1080">
    <defs>
        <style>.cls-1 {
            font-size: 325.67px;
            fill: #2a2891;
            font-family: Roboto-Bold, Roboto;
            font-weight: 700;
        }

        .cls-2 {
            font-size: 93.05px;
            fill: #039;
            font-family: Roboto-Medium, Roboto;
            font-weight: 500;
        }

        .cls-3, .cls-4 {
            fill: #ffca05;
        }

        .cls-3 {
            fill-rule: evenodd;
        }

        .cls-5 {
            fill: #ffcb05;
        }</style>
    </defs>
    <title>ZTBL LOGO</title>
    <text class="cls-1" transform="translate(400.98 574.69)">ZTBL</text>
    <text class="cls-2" transform="translate(400.98 716.88)">ZARAI TARAQIATI BANK LIMITED</text>
    <path class="cls-3"
          d="M188,238h11.44V449.77a148.31,148.31,0,0,1,30.41,45.54V260h11.45V553.54h0c-.59,36.12-15,74.39-47.56,109.36-32.6-35-47-73.24-47.56-109.36h0V260h11.45V495.31A148.31,148.31,0,0,1,188,449.77V238ZM325,565.67V321.58H313.55V543.4c-.22,6.42-1.34,10.73-7.4,19.28-6.2,8.74-14.21,17.26-23,25.53V286.45H271.69v312l-2.41,2.07c-39.12,33.38-58.32,41.21-75.58,86.07-17.26-44.86-36.46-52.69-75.58-86.07l-2.41-2.07v-312H104.27V588.21c-8.81-8.27-16.82-16.79-23-25.53-6-8.55-7.18-12.86-7.4-19.28V321.58H62.41V565.67C62.82,622.59,75,673.87,112.27,706c34.48,29.69,47.87,17.1,81.43,61.74,33.57-44.64,47-32.05,81.43-61.74C312.4,673.87,324.58,622.59,325,565.67Z"/>
    <path class="cls-4"
          d="M777.48,762.74s35.74-22.92,161-39.75q-20.45,6.63-41.11,12.93c-20.23,6.21-40.44,12.48-61,18.05-9.79,2.64-19.57,5.33-29.49,7.68-5.45,1.28-11,3.16-16.75,4a29.09,29.09,0,0,1-8.73.1C779.91,765.46,774.36,764.21,777.48,762.74Z"/>
    <path class="cls-5" d="M188.65,701.64V799c0,7.72,12,7.73,12,0V701.64c0-7.73-12-7.74-12,0Z"/>
</svg>
